<svg width="164" height="157" viewBox="0 0 164 157" fill="none" xmlns="http://www.w3.org/2000/svg">
<path fill-rule="evenodd" clip-rule="evenodd" d="M152.796 233.477C152.284 228.715 151.968 223.919 151.787 219.133C151.606 214.353 151.842 209.514 151.946 204.732C152.158 195.003 152.503 185.252 151.728 175.539C150.997 166.359 149.317 157.243 146.666 148.422C145.375 144.127 144.015 139.658 141.892 135.689C139.757 131.698 136.375 129.041 132.661 126.604C128.706 124.009 124.783 121.365 120.844 118.746C117.537 116.548 111.586 113.989 108.873 111.051C106.018 107.958 105.482 100.293 103.581 96.6301C101.729 93.0621 96.4879 90.7346 92.4524 90.7346C85.7727 90.7346 80.7115 90.3931 75.219 96.5745C72.4787 99.6587 74.659 102.777 71.7866 105.737C69.1458 108.458 62.3921 111.255 58.9884 112.834C54.9118 114.726 50.7322 116.396 46.4921 117.883C42.1668 119.401 37.7325 120.532 33.383 121.964C29.2138 123.336 23.7698 128.995 20.5332 131.988C17.5241 134.772 16.7773 134.46 14.4897 137.841C9.46915 145.262 4.44309 152.768 0.445064 160.803C-1.54634 164.805 -3.47458 169.015 -4.19712 173.459C-4.96782 178.2 -4.20367 182.781 -2.95381 187.371C-1.68156 192.042 2.35851 196.489 3.67471 201.149C4.28126 203.296 2.19922 205.639 3.15689 207.662C3.6352 208.673 4.23753 209.572 4.9233 210.453C5.45168 211.131 7.51225 210.981 7.77887 211.811C8.04824 212.65 6.55746 214.39 6.53528 215.258C6.5038 216.501 6.45436 217.743 6.41358 218.985L6.17274 226.328C6.0145 231.154 5.85626 235.979 5.69802 240.805C5.64626 242.38 5.57084 243.919 5.94837 245.414C5.81211 245.287 5.6826 245.15 5.56429 244.995C5.21802 244.543 4.48366 244.926 4.77753 245.455C5.26809 246.338 5.97351 246.96 6.80232 247.406C7.76549 248.827 153.63 251.999 154.347 247.846C154.75 245.516 154.017 243.022 153.724 240.706C153.419 238.295 153.057 235.894 152.796 233.477Z" fill="white"/>
<path fill-rule="evenodd" clip-rule="evenodd" d="M4.62584 173.468C4.98267 172.445 6.61492 172.888 6.25555 173.917C4.40823 179.21 5.71872 184.971 7.71584 190.024C8.11661 191.038 6.4814 191.473 6.08612 190.473C3.98527 185.158 2.68556 179.027 4.62584 173.468M17.0124 203.704C22.2223 204.437 27.4364 204.889 32.6822 205.255C32.9167 205.272 33.1195 205.236 33.2948 205.16C33.1385 207.563 33.0117 209.968 32.9124 212.373C31.4822 212.333 30.0223 212.428 28.6047 212.39C26.7519 212.339 24.9012 212.246 23.0526 212.105C19.4737 211.834 15.9012 211.403 12.3624 210.807C11.0399 210.585 9.36032 210.45 7.85398 210.01C6.43004 209.594 5.16243 208.905 4.49694 207.607C3.93074 206.508 3.82722 205.162 3.82722 203.947C3.82722 203.11 3.97088 202.26 4.0575 201.417C4.16525 201.341 4.26243 201.25 4.3406 201.149C5.91243 201.645 7.54342 201.994 9.1406 202.332C11.7413 202.886 14.38 203.334 17.0124 203.704M14.0739 184.162C14.1027 185.777 14.5495 187.244 15.4189 188.604C16.007 189.525 14.5436 190.372 13.9594 189.458C12.936 187.857 12.4176 186.059 12.3838 184.162C12.3644 183.071 14.0545 183.075 14.0739 184.162M147.622 201.784C148.327 201.824 149.037 201.848 149.745 201.886C150.369 202.42 151.233 202.693 152.022 202.523C152.049 202.592 152.074 202.668 152.097 202.757C152.236 203.3 152.306 203.883 152.386 204.437C152.466 204.982 152.528 205.532 152.57 206.081C152.591 206.358 152.724 206.984 152.555 207.225C152.403 207.442 152.067 207.423 151.835 207.451C151.209 207.518 150.576 207.55 149.946 207.603C148.757 207.707 147.567 207.81 146.38 207.914C145.216 208.015 143.938 207.984 142.799 208.29C142.604 206.005 142.427 203.721 142.262 201.434C144.026 201.694 145.871 201.687 147.622 201.784M-0.290506 197.995C0.419353 199.367 1.07428 200.715 2.43273 201.539C2.6102 201.645 2.80879 201.702 3.01161 201.717C2.85949 202.37 2.76442 203.038 2.67992 203.655C2.494 205.014 2.45386 206.419 2.794 207.759C3.12569 209.063 3.67499 210.228 4.75245 211.063C5.25316 211.452 5.80034 211.748 6.37499 211.982C6.2778 212.255 6.22076 212.526 6.25034 212.824C6.11302 213.514 6.02217 214.218 5.92287 214.892C5.70527 216.389 5.48766 217.887 5.31654 219.392C4.97428 222.385 4.70597 225.378 4.47992 228.381C4.25386 231.376 4.09118 234.375 3.95597 237.376C3.88625 238.91 3.82499 240.445 3.76794 241.981C3.7109 243.56 3.45527 245.175 4.15245 246.64C4.71442 247.823 6.61372 247.755 7.19682 246.64C7.93625 245.221 7.71865 243.537 7.73766 241.981C7.75668 240.517 7.78203 239.05 7.81372 237.585C7.8771 234.586 7.97006 231.589 8.044 228.59C8.11583 225.663 8.20456 222.738 8.26372 219.811C8.2933 218.278 8.29541 216.746 8.30386 215.214C8.30809 214.364 8.344 213.458 8.28062 212.572C8.80879 212.696 9.34118 212.802 9.86724 212.91C13.8834 213.734 17.9419 214.334 22.0257 214.706C24.0771 214.892 26.1348 215.023 28.1926 215.098C29.7053 215.152 31.2729 215.258 32.8088 215.201C32.6884 218.87 32.6334 222.541 32.6398 226.213C32.644 228.861 32.6799 231.509 32.7454 234.157C32.7813 235.55 32.8109 236.943 32.8532 238.335C32.8722 238.961 32.8722 239.593 32.9144 240.216C32.9271 240.411 32.9546 240.599 32.9905 240.785C32.851 241.18 32.7348 241.571 32.6398 241.937C32.175 243.712 32.175 245.418 32.382 247.227C32.5595 248.761 33.8503 250.184 35.5553 249.645C35.832 249.558 36.1088 249.467 36.3834 249.374C38.8933 249.66 41.4179 249.725 43.9637 249.774C47.6841 249.846 51.4067 249.869 55.1292 249.888C62.4306 249.926 69.7341 249.945 77.0377 249.966C91.7144 250.008 106.391 250.048 121.068 250.091C125.141 250.104 129.214 250.114 133.288 250.127C135.396 250.133 137.5 250.135 139.607 250.216C140.589 250.254 141.574 250.306 142.556 250.321C143.695 250.34 144.702 250.012 145.79 249.715C146.405 249.543 146.648 248.926 146.517 248.404C147.502 248.639 148.695 248.14 149.031 247.031C149.276 246.225 149.186 245.352 148.82 244.606V244.604C148.114 240.147 147.219 235.71 146.515 231.251C145.744 226.367 145.002 221.472 144.35 216.569C143.859 212.866 143.456 215.491 143.107 211.771C144.626 211.889 146.344 211.426 147.848 211.23C148.928 211.09 150.016 210.978 151.098 210.83C151.017 211.921 151.04 213.033 151.011 214.079C150.954 216.156 150.979 218.225 151.032 220.303C151.133 224.312 151.359 221.979 151.721 225.971C152.086 229.993 152.534 234.001 153.077 238.004C153.356 240.064 153.654 242.123 153.969 244.179C154.114 245.139 154.264 246.096 154.419 247.056C154.602 248.186 154.662 249.258 155.509 250.108C156.153 250.752 157.469 250.697 157.896 249.799C158.437 248.664 158.192 247.692 157.991 246.5C157.829 245.542 157.672 244.585 157.518 243.628C157.188 241.575 156.876 239.521 156.582 237.465C156.016 233.502 155.481 229.533 155.004 225.559C154.522 221.554 154.024 223.894 153.55 219.889C153.312 217.868 153.073 215.852 152.794 213.838C152.652 212.802 152.564 211.699 152.378 210.632C152.437 210.623 152.496 210.613 152.555 210.602C153.84 210.367 154.936 209.642 155.259 208.319C155.568 207.053 155.2 205.597 154.94 204.355C154.719 203.296 154.518 201.945 153.837 201.038C156.237 197.98 157.798 194.132 158.794 190.432C159.878 186.401 160.332 182.194 160.429 178.029C160.54 173.203 160.177 168.406 159.35 163.687C159.33 162.687 159.284 161.688 159.21 160.69C158.483 150.892 155.433 139.295 145.761 134.717C145.723 134.698 145.683 134.681 145.643 134.664C144.884 133.757 143.938 132.941 143.173 132.179C141.819 130.826 140.403 129.532 138.903 128.34C135.933 125.98 132.675 124.094 129.288 122.397C125.864 120.679 122.388 119.066 119.042 117.192C116.126 115.556 113.502 113.586 111.012 111.362C108.212 108.862 106.22 105.491 105.438 101.812C105.398 101.619 105.113 101.672 105.109 101.856C104.904 108.6 109.455 114.56 114.692 118.331C120.954 122.835 128.515 124.967 134.866 129.334C136.444 130.418 137.921 131.642 139.326 132.941C137.173 132.722 134.982 132.861 132.964 133.457C132.17 133.408 131.371 133.394 130.575 133.356C128.754 133.265 126.931 133.18 125.107 133.1C121.391 132.935 117.673 132.785 113.955 132.654C106.659 132.396 99.3623 132.202 92.0651 132.073C77.401 131.813 62.7179 131.762 48.056 132.187C44.0799 132.301 23.1729 131.509 21.2377 131.732C24.0834 129.268 27.206 127.256 30.6391 125.601C34.9341 123.536 39.3729 122.158 43.9595 120.899C53.4053 118.305 63.2144 115.805 70.7736 109.217C72.6517 107.579 74.3208 105.696 75.6877 103.61C76.9933 101.619 78.4447 99.0704 78.4806 96.642C78.506 94.9175 76.106 94.2896 75.2525 95.767C74.7222 96.6821 74.4602 97.686 74.0271 98.6456C73.5961 99.5966 73.0848 100.514 72.5165 101.391C71.3989 103.116 70.013 104.654 68.5046 106.043C65.2891 109.006 61.3933 111.177 57.3623 112.819C48.2102 116.545 38.2003 118.117 29.5278 123.029C25.7334 125.178 22.1017 128.144 19.8222 131.927C19.4546 131.984 19.0891 132.052 18.7236 132.128C18.9961 131.783 19.2708 131.439 19.5475 131.096C19.7292 130.872 19.4482 130.577 19.2264 130.775C14.9144 134.613 10.9426 138.758 7.34259 143.276C3.89893 147.601 0.687663 152.132 -1.58558 157.196C-5.67149 166.293 -6.57149 176.697 -4.46093 186.424C-3.88628 189.074 -3.07501 191.669 -2.04191 194.178C-1.50952 195.474 -0.93276 196.75 -0.290506 197.995" fill="black"/>
<path fill-rule="evenodd" clip-rule="evenodd" d="M92.7979 8.28079C104.794 8.28079 119.818 21.9701 124.215 27.7955C127.912 32.6932 127.389 57.9244 127.389 72.8916C127.389 76.0219 125.975 81.9463 125.462 84.9406C123.58 95.9128 115.382 105.115 99.1572 105.115C85.9461 105.115 75.7794 100.929 65.948 90.2219C63.705 87.7792 52.7511 96.5238 50.5109 93.3746C44.6595 93.3746 39.7668 38.6819 51.2552 22.2772C62.7437 5.87258 80.802 8.28079 92.7979 8.28079Z" fill="white"/>
<path fill-rule="evenodd" clip-rule="evenodd" d="M56.7434 12.1333C63.6751 5.82446 72.9096 2.78947 82.2265 3.0135C87.0518 3.12975 91.8603 4.04912 96.4173 5.62368C98.6969 6.41413 100.905 7.44552 103.015 8.61217C103.776 9.03162 104.477 9.5231 105.152 10.0451L105.32 10.1762H105.322C107.133 10.8271 108.749 11.9959 110.215 13.3633C113.154 13.1287 116.116 13.3929 118.957 14.2996C122.912 15.5635 126.574 17.8778 129.145 21.1643C132.14 24.9904 133.135 29.6314 132.78 34.4224L132.714 35.2363C132.363 39.4685 131.734 44.9121 128.262 47.693C127.998 47.9043 127.706 48.0649 127.404 48.1622C129.641 51.996 131.477 56.2526 132.576 60.5515C136.769 76.9713 133.545 94.0949 128.503 109.921C128.088 111.225 126.117 112.091 125.114 110.817C123.322 108.539 120.719 106.801 117.791 106.476C115.985 106.275 114.187 106.639 112.48 105.819C111.81 105.495 111.164 104.967 110.699 104.324C107.817 105.417 104.714 105.933 101.636 105.806C96.5842 105.599 91.1842 103.849 87.7089 100.011C87.1511 99.3945 87.0098 98.7028 87.1382 98.0793C87.5741 97.9237 88.0215 97.8079 88.4825 97.7354C92.8896 100.334 97.7475 102.07 102.968 102.179C105.985 102.242 108.928 101.82 111.374 99.9356C111.903 99.5277 112.39 99.076 112.84 98.5907C117.954 95.2996 121.559 89.7096 123.274 83.7218C124.871 78.138 124.674 72.3237 124.125 66.5961L123.835 63.5737C123.413 59.1376 123.021 54.6883 122.911 50.2334L122.944 50.2317V50.2317C124.024 50.1619 124.032 48.4705 122.944 48.5409C120.13 48.7231 117.338 48.2613 114.533 48.4625C114.509 47.1358 114.414 45.8151 114.024 44.5356C113.801 43.8045 112.529 43.6604 112.394 44.5356C112.214 45.7065 112.148 46.8708 112.128 48.047C107.93 47.9912 103.736 47.6378 99.5373 47.783C98.7628 46.9566 98.5163 45.4913 98.1539 44.472C98.1011 44.3219 98.0483 44.174 97.9934 44.0239C97.675 45.4805 97.2237 46.9052 96.6301 48.2999L95.6003 48.3034C89.7578 48.3309 83.7963 48.5056 78.0911 49.7194C77.6946 49.4148 77.4586 48.8835 77.3948 48.401C76.981 45.2612 76.3903 42.2049 75.3436 39.2128L75.1938 38.7907C75.1816 38.7556 75.1687 38.7184 75.1551 38.6793C74.3838 39.9248 73.4635 41.0857 72.4598 42.1668C71.8682 42.804 71.248 43.4133 70.6114 44.0053C69.993 44.6922 69.3539 45.3687 68.7345 46.0577C68.7588 46.1831 68.7799 46.3103 68.797 46.4399C68.9865 47.8696 69.0062 49.3197 68.8674 50.755C68.6164 53.3497 67.8842 55.85 66.7078 58.163L66.6706 58.3946C66.492 59.4786 66.2378 60.5988 65.6443 61.4151C66.385 62.2453 66.9556 63.2369 67.2865 64.3387C67.581 65.3196 66.2244 66.1696 65.5209 65.3669C64.9621 64.7293 64.3412 64.2015 63.6592 63.7805C63.6161 63.8391 63.5384 63.8678 63.4511 63.819C61.5518 62.7643 58.3258 63.0835 56.4286 64.0768C54.0687 65.3111 53.1476 67.8452 53.4096 70.4131C53.661 72.8669 54.7342 75.7349 56.8152 76.9924C57.7701 77.5694 58.5138 77.618 59.5279 77.3412C59.8521 77.2531 60.2541 76.9829 60.4267 76.8486L60.5965 76.7125C61.2613 76.1868 61.8804 75.8269 62.6652 75.8131C63.4679 75.5627 64.2745 75.9101 64.5815 76.752L64.6004 76.8065C64.7441 77.2355 65.0061 77.7744 64.949 78.4296C64.8899 79.1313 64.5687 79.7696 64.0892 80.2832C64.0068 80.3719 63.918 80.4607 63.8272 80.5431C72.0877 89.4896 73.1483 103.43 68.9124 114.606C68.7286 115.097 68.5321 115.581 68.3272 116.061C67.6194 117.705 64.8941 117.195 64.5476 115.566C64.4441 115.078 64.33 114.592 64.2054 114.11C63.9762 113.219 63.7138 112.337 63.4179 111.468L63.3054 111.142C63.0539 110.424 62.8194 109.699 62.5659 108.98L62.5406 108.898C62.5311 108.866 62.5205 108.828 62.5089 108.786L62.08 109.722V109.722L60.7765 112.548C60.1665 113.867 58.2284 113.15 58.1564 111.879L58.1546 111.836C58.1483 111.601 58.1399 111.369 58.1251 111.138C58.0321 109.411 57.7342 107.733 57.261 106.091L57.0902 106.303C54.5479 109.448 51.5641 112.395 47.4708 113.121C46.4441 113.302 45.2821 112.229 45.9877 111.191C46.2793 110.762 46.5603 110.322 46.8265 109.876C46.5962 109.769 46.3786 109.657 46.1779 109.542C44.6251 108.67 43.3321 107.427 42.2631 106.017C39.9962 103.029 39.1849 99.2666 38.9863 95.5849C38.7751 91.694 39.1173 87.5917 40.18 83.8381C40.6406 82.2149 41.2638 80.6573 41.9842 79.1461C41.9335 79.0108 41.8849 78.8756 41.8363 78.7403C41.0589 76.5719 40.4208 74.3548 39.8906 72.1124C38.8216 67.5852 38.2469 62.9144 38.1772 58.2626C38.0504 49.929 39.487 41.4623 42.5145 33.691C45.6413 25.6766 50.3441 17.956 56.7434 12.1333ZM52.85 84.9941C52.2759 84.0898 50.8393 84.9047 51.3724 85.8154L51.3923 85.848C52.3028 87.2831 52.7296 88.9147 53.2536 90.5146C53.5895 91.5439 55.2226 91.1043 54.8824 90.0645L54.7698 89.7173C54.2485 88.0948 53.7729 86.446 52.85 84.9941ZM57.8502 67.731L58.2317 67.5464C59.4349 66.972 60.4891 66.5807 61.9108 67.0822C63.8143 67.7522 65.853 69.8847 64.5664 71.9538C64.0932 72.7168 63.2523 73.0211 62.3861 72.8415C60.9258 72.5385 60.549 71.223 59.808 70.1431L59.6804 69.9602C59.2287 69.3068 58.6573 68.4035 57.9051 68.1474C57.734 68.0882 57.6622 67.8219 57.8502 67.731ZM58.9237 23.8001L59.0465 23.6899C59.8641 22.9671 58.6641 21.7751 57.8507 22.4937C54.1282 25.7844 52.8353 30.935 50.9043 35.3248C50.4712 36.3118 51.9268 37.1741 52.3641 36.1786C54.2061 31.9898 55.4287 26.9789 58.9237 23.8001V23.8001ZM103.658 22.3605C102.685 21.9221 101.834 23.3381 102.769 23.8043L102.804 23.821C106.091 25.3068 107.49 28.6715 108.829 31.7952C109.256 32.7928 110.712 31.9326 110.289 30.9435L110.048 30.383C108.65 27.1638 107.02 23.8825 103.658 22.3605ZM108.81 20.3273C107.779 19.9701 107.337 21.6018 108.36 21.9589C111.146 22.929 113.058 25.0214 114.67 27.4139C115.275 28.31 116.739 27.4646 116.128 26.56C114.256 23.7829 112.034 21.4517 108.81 20.3273Z" fill="black"/>
<path fill-rule="evenodd" clip-rule="evenodd" d="M103.152 90.2743C101.731 89.6947 100.464 88.7279 99.5378 87.4929C99.2157 87.0636 99.1322 86.6102 99.1998 86.1955C99.2757 85.7292 99.5515 85.3066 99.9275 85.0232C100.305 84.7388 100.777 84.5986 101.233 84.6701C101.629 84.7322 102.024 84.9493 102.336 85.3996L102.401 85.4897C102.952 86.2351 103.67 86.8467 104.488 87.2409C105.276 87.6209 106.157 87.7982 107.07 87.6951C108.807 87.4988 110.005 86.5588 111.277 85.2823C111.435 85.1211 111.593 84.9549 111.752 84.786C111.852 84.6329 111.991 84.5345 112.145 84.4829C112.317 84.4256 112.511 84.4288 112.688 84.4908C112.859 84.5506 113.013 84.6639 113.115 84.8147C113.213 84.9581 113.268 85.1351 113.25 85.3388C113.134 86.6617 112.442 87.8423 111.46 88.7693C110.37 89.7989 108.924 90.5112 107.563 90.761C106.063 91.0362 104.535 90.839 103.152 90.2743V90.2743ZM108.27 69.8665C109.866 70.8366 112.296 73.0987 110.58 75.5037C108.56 77.6243 105.651 75.1929 104.218 74.0933C102.889 73.2411 101.396 75.4329 102.629 76.428C112.986 84.099 117.189 70.1202 109.077 68.7259C108.184 68.5722 107.852 69.5664 108.27 69.8665ZM89.7101 60.9431C89.8864 58.7543 93.2186 58.2573 93.5501 60.4232C93.8469 62.3634 93.4975 64.1457 92.6239 65.8925C91.7892 67.5613 89.6912 66.7828 89.5325 65.2631C89.3198 63.2262 89.6004 62.3047 89.7101 60.9431ZM115.076 59.9741C115.54 59.3654 116.211 58.9499 117.015 59.1847C119.526 59.9187 118.786 63.4848 117.904 65.2207C117.425 66.1633 115.876 66.4023 115.176 65.5723C114.035 64.2189 113.489 61.5159 114.939 60.1827C114.978 60.1138 115.022 60.0443 115.076 59.9741ZM92.5885 51.3656L92.9851 51.2962C94.2121 51.0839 95.7378 50.8799 96.6058 51.8667C97.0661 52.39 97.2246 53.3627 96.6058 53.8636C95.5173 54.7449 94.3139 54.4033 93.0096 54.4779C91.9346 54.5397 90.9015 54.7176 89.8661 55.0137C87.5946 55.6632 85.7436 56.8489 83.8036 58.1508C83.549 58.3216 83.2891 57.9959 83.4106 57.7577C84.5305 55.5632 86.7009 53.7606 88.8748 52.6618C90.0351 52.0753 91.3048 51.5888 92.5885 51.3656ZM112.787 50.3826L113.09 50.4447C116.394 51.1356 120.686 52.5155 122.251 55.7617C122.31 56.2208 122.247 56.3192 122.196 56.3834L122.179 56.4048C122.137 56.4597 122.103 56.5354 121.904 56.5978C121.849 56.5847 121.793 56.5708 121.737 56.556C121.02 56.368 120.452 56.109 119.903 55.8402L119.308 55.5467C118.617 55.2078 117.92 54.8812 117.181 54.6401C115.604 54.1257 113.983 53.7633 112.336 53.5698C111.979 53.5279 111.635 53.4074 111.364 53.2009C111.107 53.0049 110.91 52.7334 110.821 52.3727C110.705 51.9058 110.738 51.5523 110.988 51.1311C111.177 50.8148 111.446 50.5956 111.755 50.4697C112.071 50.3413 112.43 50.3111 112.787 50.3826Z" fill="black"/>
<path fill-rule="evenodd" clip-rule="evenodd" d="M126.085 71.7582C124.663 73.6698 122.025 74.2787 119.593 74.0684C114.347 73.5633 112.696 67.603 112.524 62.9704C116.042 63.9604 112.227 56.9491 124.252 56.178C128.491 55.8247 127.322 58.3858 129.195 60.2571C129.157 64.1844 128.503 68.4518 126.085 71.7582M101.098 67.2454C98.001 81.7553 81.0409 78.3039 79.2593 65.2243C80.9044 64.0627 80.4711 61.1945 82.5149 60.1553C85.754 58.0849 89.8032 58.1734 93.4816 58.222C98.1833 58.5452 99.5232 60.4936 101.938 62.6194C101.822 64.0393 101.487 65.722 101.098 67.2454M132.803 53.775C132.63 53.7461 132.456 53.7188 132.281 53.6932C132.146 53.6161 131.986 53.5567 131.801 53.521C131.377 53.4134 130.956 53.3409 130.536 53.3018C124.508 51.9447 110.563 53.8716 109.988 59.0176C108.068 59.6586 106.407 59.0846 104.182 59.1416C102.489 52.0603 73.2108 53.0598 71.8027 57.3291C71.7974 57.3276 71.7921 57.3263 71.7866 57.3246C70.4337 56.9057 68.4391 57.0068 66.8905 56.9404C63.584 56.8711 60.2736 57.1659 57.0385 57.8636C50.9804 58.8267 42.7124 59.9543 46.9257 67.5223C46.9266 67.5236 46.9272 67.525 46.9283 67.5263L46.9289 67.5257C47.655 68.2703 48.8873 67.6707 48.9332 66.6627C47.5166 63.0774 50.7161 62.6469 53.1778 61.6165C59.303 59.4151 65.5392 59.1099 71.8743 59.7909C72.3509 60.3522 73.0741 60.8417 73.8385 61.0979C78.0742 61.8013 75.8419 64.9445 78.5193 65.4016C78.0275 76.3584 91.3249 82.3392 99.0296 75.1366C102.106 72.1278 102.839 67.6707 103.552 63.6531C103.93 63.5684 104.169 63.3621 104.309 63.089C105.216 62.1832 105.786 61.3466 107.58 61.0979C109.373 60.8493 110.754 61.3483 110.94 61.5011C110.988 61.596 111.038 61.6911 111.097 61.7862C111.179 61.9281 111.29 62.0411 111.417 62.1301C109.646 73.0409 118.113 79.941 126.661 74.2821C130.375 70.787 131.16 65.4361 131.315 60.66C131.818 60.356 132.137 59.767 131.963 59.0264C131.722 58.0056 132.286 57.1217 133.183 56.6779C134.348 56.1016 134.142 53.9967 132.803 53.775" fill="black"/>
</svg>
